#!OML:ASF H:\Terrain\Patient Classification 1\Terrain2\Thursday\justin.ASF
:FULLY-SPECIFIED
:DEGREES
3065
root -2.18986 17.7181 32.6364 -179.508 -5.658 -178.437
lowerback 6.16985 -0.304333 -1.95934
upperback 2.21345 -0.625842 1.71741
thorax -1.13939 -0.379259 2.91433
lowerneck -15.5841 -0.0900948 -7.52703
upperneck 30.6334 -1.06379 3.62379
head 12.8424 -1.58082 2.38042
rclavicle -1.73937e-015 -8.74653e-015
rhumerus -34.421 -15.4119 -72.4557
rradius 34.994
rwrist -20.4616
rhand -20.2832 9.79063
rfingers 7.12502
rthumb 6.06645 -20.1025
lclavicle -1.73937e-015 -8.74653e-015
lhumerus -25.5238 8.74428 75.3254
lradius 24.7913
lwrist -2.74738
lhand -16.7321 21.8095
lfingers 7.12502
lthumb 9.49387 51.5756
rfemur -18.9254 1.29714 19.387
rtibia 42.617
rfoot -25.3379 -1.54871
rtoes -6.52542
lfemur -5.68595 -0.662293 -18.4434
ltibia 24.4715
lfoot -15.2577 -11.6685
ltoes 14.9365
3066
root -2.20309 17.7174 32.6428 -179.595 -5.12608 -178.514
lowerback 6.26502 -0.213602 -2.08292
upperback 2.29929 -0.520666 1.68327
thorax -1.11 -0.331065 2.94201
lowerneck -15.5836 -0.0976761 -7.53973
upperneck 30.5864 -1.08283 3.6688
head 12.8242 -1.5827 2.39673
rclavicle 1.17531e-014 -1.08338e-014
rhumerus -34.5485 -15.8375 -72.3741
rradius 34.6017
rwrist -19.6582
rhand -19.9687 9.60491
rfingers 7.12502
rthumb 6.37008 -20.2793
lclavicle 1.17531e-014 -1.08338e-014
lhumerus -25.2451 9.24171 74.8871
lradius 25.0419
lwrist -2.70029
lhand -17.0737 22.8199
lfingers 7.12502
lthumb 9.16427 52.6008
rfemur -18.8866 0.284313 19.562
rtibia 43.178
rfoot -25.317 -1.81502
rtoes -6.2607
lfemur -5.48854 -0.302575 -18.556
ltibia 24.395
lfoot -15.1962 -11.6648
ltoes 15.5671
3067
root -2.21894 17.7249 32.6426 -179.54 -4.68092 -178.633
lowerback 6.11972 -0.22555 -2.26774
upperback 2.29037 -0.542645 1.72167
thorax -1.0346 -0.342975 3.08593
lowerneck -15.2777 -0.0033475 -7.71478
upperneck 30.5254 -0.95207 3.6782
head 12.7252 -1.55643 2.4466
rclavicle 6.95746e-015 9.74045e-015
rhumerus -34.7706 -15.5991 -72.4498
rradius 34.4729
rwrist -19.6686
rhand -20.2062 9.20031
rfingers 7.12502
rthumb 6.14078 -20.6907
lclavicle 6.95746e-015 9.74045e-015
lhumerus -25.3275 9.71768 74.5539
lradius 25.5778
lwrist -2.16163
lhand -18.0565 25.9741
lfingers 7.12502
lthumb 8.21581 55.7944
rfemur -18.9869 -0.832806 19.6362
rtibia 43.725
rfoot -25.0949 -1.53192
rtoes -4.57744
lfemur -5.47958 -0.160952 -18.7609
ltibia 24.4104
lfoot -15.3333 -11.4693
ltoes 15.4708
3068
root -2.2339 17.7262 32.6394 -179.39 -4.23701 -178.495
lowerback 5.98424 -0.363989 -2.3344
upperback 2.07489 -0.71553 1.97183
thorax -1.16447 -0.421632 3.3943
lowerneck -14.7365 0.308829 -7.94777
upperneck 30.5067 -0.479854 3.47922
head 12.5697 -1.43086 2.47262
rclavicle 7.45443e-017 -1.86858e-014
rhumerus -35.1403 -14.8179 -72.4156
rradius 34.2234
rwrist -19.6475
rhand -20.171 8.9863
rfingers 7.12502
rthumb 6.17473 -20.9037
lclavicle 7.45443e-017 -1.86858e-014
lhumerus -25.9304 9.98688 74.5087
lradius 26.3254
lwrist -0.434493
lhand -19.5284 28.1478
lfingers 7.12502
lthumb 6.7951 58.0188
rfemur -19.1292 -1.74921 20.0037
rtibia 44.2094
rfoot -24.8435 -1.20292
rtoes -2.40745
lfemur -5.62313 0.00447091 -18.6866
ltibia 24.5031
lfoot -15.6159 -11.1083
ltoes 14.4744
3069
root -2.24103 17.7147 32.6411 -179.363 -3.70087 -178.272
lowerback 6.04041 -0.39849 -2.37949
upperback 1.96197 -0.762096 2.20693
thorax -1.30444 -0.442194 3.6689
lowerneck -14.5256 0.527177 -8.11236
upperneck 30.5722 -0.137469 3.34263
head 12.528 -1.33802 2.49458
rclavicle -4.05024e-015 -2.18663e-015
rhumerus -35.4246 -14.2081 -72.4864
rradius 34.1306
rwrist -20.0189
rhand -20.5344 8.65874
rfingers 7.12502
rthumb 5.82384 -21.2412
lclavicle -4.05024e-015 -2.18663e-015
lhumerus -26.2246 11.1905 74.0512
lradius 26.7424
lwrist -0.904557
lhand -18.4733 26.7253
lfingers 7.12502
lthumb 7.81358 56.5609
rfemur -19.1055 -2.24921 20.5194
rtibia 44.5846
rfoot -24.6836 -1.11638
rtoes -2.00532
lfemur -5.68368 0.170869 -18.475
ltibia 24.6461
lfoot -15.8348 -10.6704
ltoes 13.694
3070
root -2.24671 17.7037 32.6418 -179.418 -3.07038 -178.306
lowerback 6.11649 -0.279031 -2.5429
upperback 2.01473 -0.617957 2.21658
thorax -1.30218 -0.372917 3.7622
lowerneck -14.604 0.553092 -8.07517
upperneck 30.6528 -0.0786867 3.21714
head 12.5744 -1.33124 2.44872
rclavicle 7.70291e-015 -1.82882e-014
rhumerus -35.6053 -14.2014 -72.6442
rradius 34.0807
rwrist -20.2111
rhand -20.9651 8.10011
rfingers 7.12502
rthumb 5.408 -21.8109
lclavicle 7.70291e-015 -1.82882e-014
lhumerus -26.1695 10.9303 74.1001
lradius 27.5577
lwrist 1.33079
lhand -19.1804 27.6626
lfingers 7.12502
lthumb 7.13106 57.5224
rfemur -19.0149 -2.78962 20.7609
rtibia 44.8482
rfoot -24.3986 -1.15384
rtoes -4.99461
lfemur -5.63708 0.250854 -18.5645
ltibia 24.8364
lfoot -16.0709 -10.1263
ltoes 13.2675
3071
root -2.25403 17.6982 32.6371 -179.383 -2.70779 -178.202
lowerback 6.15862 -0.250473 -2.47947
upperback 1.94238 -0.57351 2.23608
thorax -1.40437 -0.346679 3.74463
lowerneck -14.5619 0.57665 -8.04472
upperneck 30.731 -0.0651646 3.15241
head 12.5968 -1.34255 2.41928
rclavicle 1.31695e-015 -9.14409e-015
rhumerus -35.9625 -14.2409 -72.7333
rradius 33.885
rwrist -20.1032
rhand -20.9887 8.05706
rfingers 7.12502
rthumb 5.38526 -21.8545
lclavicle 1.31695e-015 -9.14409e-015
lhumerus -26.3177 10.6253 74.055
lradius 28.2844
lwrist 2.77857
lhand -18.4216 28.8725
lfingers 7.12502
lthumb 7.86344 58.7063
rfemur -18.9199 -3.72786 21.1729
rtibia 44.9724
rfoot -24.0762 -1.35596
rtoes -8.65096
lfemur -5.72203 0.359279 -18.4868
ltibia 25.0731
lfoot -16.274 -9.95989
ltoes 13.5384
3072
root -2.263 17.6966 32.6327 -179.291 -2.53386 -178.228
lowerback 6.1155 -0.264304 -2.51643
upperback 1.89779 -0.590119 2.24841
thorax -1.42435 -0.35274 3.77935
lowerneck -14.5697 0.588359 -8.0789
upperneck 30.7591 -0.0517716 3.16594
head 12.6088 -1.3432 2.43206
rclavicle -2.26118e-015 2.26615e-014
rhumerus -36.1973 -14.3706 -72.7797
rradius 33.6829
rwrist -20.202
rhand -21.283 8.05409
rfingers 7.12502
rthumb 5.10112 -21.8645
lclavicle -2.26118e-015 2.26615e-014
lhumerus -26.3983 10.2465 74.1666
lradius 28.8875
lwrist 3.34359
lhand -17.4754 27.1253
lfingers 7.12502
lthumb 8.77661 56.9229
rfemur -18.7596 -4.62639 21.3946
rtibia 44.9747
rfoot -23.7817 -1.40716
rtoes -10.2123
lfemur -5.8989 0.516914 -18.5479
ltibia 25.3117
lfoot -16.3087 -10.0515
ltoes 14.1101
3073
root -2.27275 17.6894 32.6326 -179.231 -2.23624 -178.316
lowerback 6.14222 -0.21691 -2.58927
upperback 1.88838 -0.530985 2.22812
thorax -1.45339 -0.322006 3.79578
lowerneck -14.6281 0.603051 -8.05136
upperneck 30.7577 -0.0342616 3.1857
head 12.619 -1.3279 2.43808
rclavicle 6.31141e-015 -3.97569e-016
rhumerus -36.2832 -14.9268 -72.6819
rradius 33.1983
rwrist -19.6588
rhand -21.7418 8.18171
rfingers 7.12502
rthumb 4.65811 -21.7471
lclavicle 6.31141e-015 -3.97569e-016
lhumerus -26.4279 9.43399 74.4824
lradius 29.4978
lwrist 4.47204
lhand -18.6524 24.0683
lfingers 7.12502
lthumb 7.6407 53.9102
rfemur -18.5646 -5.1955 21.4918
rtibia 44.8242
rfoot -23.026 -1.11412
rtoes -10.9483
lfemur -6.03465 0.638059 -18.6896
ltibia 25.5467
lfoot -16.2916 -9.96628
ltoes 14.416
3074
root -2.2773 17.6829 32.6304 -179.094 -1.73699 -178.066
lowerback 6.14483 -0.145773 -2.43174
upperback 1.76449 -0.421036 2.30769
thorax -1.59243 -0.26145 3.78231
lowerneck -14.5125 0.668125 -8.1122
upperneck 30.7731 0.00362291 3.32043
head 12.5961 -1.30947 2.50429
rclavicle -2.98177e-016 3.08116e-014
rhumerus -36.5523 -15.3832 -72.5323
rradius 32.6232
rwrist -18.8216
rhand -21.4367 8.97417
rfingers 7.12502
rthumb 4.9527 -20.9479
lclavicle -2.98177e-016 3.08116e-014
lhumerus -26.524 9.35662 74.4102
lradius 29.8625
lwrist 5.74399
lhand -20.2512 23.4907
lfingers 7.12502
lthumb 6.0973 53.3829
rfemur -18.4413 -5.29119 21.9891
rtibia 44.512
rfoot -21.632 -0.718974
rtoes -10.1368
lfemur -6.2013 0.683317 -18.4489
ltibia 25.7296
lfoot -16.4479 -9.61032
ltoes 14.4466
3075
root -2.28205 17.6901 32.6198 -178.895 -1.16631 -177.716
lowerback 5.91804 -0.0672656 -2.19315
upperback 1.67192 -0.294046 2.41698
thorax -1.57268 -0.196516 3.74977
lowerneck -14.4118 -1.83179 -7.5199
upperneck 30.9386 0.996404 2.44759
head 12.6726 0.685025 2.57444
rclavicle 3.72721e-015 -3.18055e-015
rhumerus -36.8672 -15.5367 -72.5531
rradius 32.387
rwrist -18.63
rhand -21.0424 9.16979
rfingers 7.12502
rthumb 5.33341 -20.7431
lclavicle 3.72721e-015 -3.18055e-015
lhumerus -26.5351 9.45037 74.2583
lradius 30.5063
lwrist 7.66463
lhand -20.2206 24.1568
lfingers 7.12502
lthumb 6.12684 54.0482
rfemur -18.288 -5.2945 22.5598
rtibia 44.0614
rfoot -20.1347 -0.201212
rtoes -5.72379
lfemur -6.37088 0.720298 -18.1182
ltibia 25.8296
lfoot -16.6606 -9.11818
ltoes 13.9469
3076
root -2.29247 17.6971 32.5987 -178.823 -0.895534 -177.7
lowerback 5.68888 -0.0919482 -2.16557
upperback 1.65684 -0.319753 2.42594
thorax -1.45843 -0.209957 3.74302
lowerneck -14.3506 -1.77056 -7.3816
upperneck 30.9611 1.09901 2.29756
head 12.6644 0.729703 2.50814
rclavicle -9.19379e-016 -2.8625e-014
rhumerus -37.0854 -15.9591 -72.489
rradius 32.1068
rwrist -18.4977
rhand -19.7366 9.41727
rfingers 7.12502
rthumb 6.59414 -20.4601
lclavicle -9.19379e-016 -2.8625e-014
lhumerus -26.6444 9.11185 74.303
lradius 31.1522
lwrist 8.64795
lhand -20.2762 24.0125
lfingers 7.12502
lthumb 6.07319 53.9054
rfemur -17.9016 -5.94077 22.6749
rtibia 43.4778
rfoot -18.9617 0.633691
rtoes 0.508804
lfemur -6.34436 0.688249 -18.1685
ltibia 25.8646
lfoot -16.8184 -8.85305
ltoes 13.7721
